<svg width="97" height="58" viewBox="0 0 97 58" fill="none" xmlns="http://www.w3.org/2000/svg">
<path d="M12.5581 0V3.81416C11.5028 3.81416 10.6796 3.96442 10.0882 4.26493C9.49679 4.55387 9.24169 5.13755 9.32287 6.01597L9.86206 11.1304C10.0012 12.4249 9.85626 13.4709 9.42722 14.2684C9.00978 15.0659 8.36623 15.6785 7.49655 16.1062C6.63848 16.5223 5.62386 16.817 4.45271 16.9903C5.69343 17.1752 6.74284 17.4758 7.60092 17.8919C8.45899 18.3079 9.08516 18.9089 9.47941 19.6949C9.87366 20.4809 10.0012 21.5327 9.86206 22.8503L9.32287 27.9647C9.24169 28.8431 9.49679 29.4268 10.0882 29.7157C10.6796 30.0162 11.5028 30.1665 12.5581 30.1665V33.9807C9.35765 33.9807 7.1081 33.4952 5.80939 32.5244C4.52229 31.565 4.00048 29.918 4.24398 27.5833L4.76579 22.6249C4.85856 21.7465 4.70782 21.0588 4.31357 20.5618C3.93091 20.0648 3.36272 19.718 2.60901 19.5215C1.85529 19.3136 0.985626 19.2095 0 19.2095V14.7712C0.97403 14.7712 1.8379 14.6729 2.59162 14.4764C3.34533 14.2684 3.91932 13.9159 4.31357 13.4189C4.70782 12.9219 4.85856 12.2342 4.76579 11.3558L4.24398 6.43205C3.98889 4.05109 4.51068 2.38673 5.80939 1.43898C7.1081 0.479659 9.35765 0 12.5581 0Z" fill="#42446E"/>
<path d="M27.633 4.49023C30.5087 4.49023 32.6771 5.59981 34.1381 7.81895C35.6108 10.0265 36.3471 13.1067 36.3471 17.0596C36.3471 21.024 35.6108 24.1273 34.1381 26.3696C32.6771 28.6004 30.5087 29.7157 27.633 29.7157C24.7342 29.7157 22.5541 28.6004 21.0931 26.3696C19.6436 24.1273 18.9189 21.024 18.9189 17.0596C18.9189 13.1067 19.6436 10.0265 21.0931 7.81895C22.5541 5.59981 24.7342 4.49023 27.633 4.49023ZM27.633 8.46043C26.4039 8.46043 25.5052 9.11924 24.937 10.4368C24.3689 11.7429 24.0847 13.9505 24.0847 17.0596C24.0847 18.0768 24.1022 18.984 24.1369 19.7815C24.1718 20.5675 24.224 21.2668 24.2935 21.8793L30.1724 9.622C29.8942 9.1828 29.5463 8.8823 29.1289 8.72047C28.7231 8.54711 28.2244 8.46043 27.633 8.46043ZM31.1465 17.0596C31.1465 15.7305 31.1175 14.6093 31.0595 13.6962L25.511 25.1214C25.7662 25.3641 26.0676 25.5316 26.4154 25.6241C26.775 25.7165 27.1808 25.7628 27.633 25.7628C28.4564 25.7628 29.1231 25.4855 29.6333 24.9307C30.1551 24.3759 30.5377 23.4628 30.7812 22.1914C31.0248 20.9084 31.1465 19.1978 31.1465 17.0596Z" fill="#42446E"/>
<path d="M48.4999 4.49023C51.3757 4.49023 53.544 5.59981 55.0051 7.81895C56.4777 10.0265 57.214 13.1067 57.214 17.0596C57.214 21.024 56.4777 24.1273 55.0051 26.3696C53.544 28.6004 51.3757 29.7157 48.4999 29.7157C45.601 29.7157 43.4211 28.6004 41.96 26.3696C40.5106 24.1273 39.7859 21.024 39.7859 17.0596C39.7859 13.1067 40.5106 10.0265 41.96 7.81895C43.4211 5.59981 45.601 4.49023 48.4999 4.49023ZM48.4999 8.46043C47.2709 8.46043 46.3722 9.11924 45.8039 10.4368C45.2358 11.7429 44.9517 13.9505 44.9517 17.0596C44.9517 18.0768 44.9691 18.984 45.0039 19.7815C45.0386 20.5675 45.0908 21.2668 45.1604 21.8793L51.0394 9.622C50.761 9.1828 50.4132 8.8823 49.9958 8.72047C49.5899 8.54711 49.0913 8.46043 48.4999 8.46043ZM52.0134 17.0596C52.0134 15.7305 51.9844 14.6093 51.9265 13.6962L46.378 25.1214C46.633 25.3641 46.9345 25.5316 47.2824 25.6241C47.6419 25.7165 48.0477 25.7628 48.4999 25.7628C49.3232 25.7628 49.9899 25.4855 50.5002 24.9307C51.0219 24.3759 51.4046 23.4628 51.6481 22.1914C51.8916 20.9084 52.0134 19.1978 52.0134 17.0596Z" fill="#42446E"/>
<path d="M68.1146 29.6812L62.8966 28.0688L71.889 9.22339H61.2964V5.09717H77.4549V8.8073L68.1146 29.6812Z" fill="#42446E"/>
<path d="M84.4419 0C87.6423 0 89.8861 0.479659 91.1732 1.43898C92.4719 2.3983 92.9995 4.05109 92.756 6.39738L92.2342 11.3558C92.1414 12.2342 92.2921 12.9219 92.6864 13.4189C93.0807 13.9159 93.6488 14.2684 94.3909 14.4764C95.1447 14.6729 96.0144 14.7712 97 14.7712V19.2095C96.0259 19.2095 95.1621 19.3136 94.4083 19.5215C93.6547 19.718 93.0807 20.0648 92.6864 20.5618C92.2921 21.0588 92.1414 21.7465 92.2342 22.6249L92.756 27.5486C93.0227 29.918 92.5009 31.5824 91.1905 32.5417C89.8918 33.501 87.6423 33.9807 84.4419 33.9807V30.1665C85.5088 30.1665 86.3378 30.0162 86.9291 29.7157C87.5206 29.4268 87.7699 28.8431 87.6772 27.9647L87.1379 22.8503C86.9988 21.5442 87.1379 20.4981 87.5553 19.7123C87.9844 18.9147 88.6338 18.3079 89.5035 17.8919C90.373 17.4642 91.3935 17.1637 92.5646 16.9903C91.3239 16.8054 90.2688 16.5049 89.3991 16.0888C88.5409 15.6727 87.9149 15.0717 87.5206 14.2858C87.1263 13.4883 86.9988 12.4365 87.1379 11.1304L87.6772 6.01597C87.7699 5.13755 87.5147 4.55387 86.9118 4.26493C86.3204 3.96442 85.4971 3.81416 84.4419 3.81416V0Z" fill="#42446E"/>
<path d="M12.2746 41.9805C13.2417 41.9805 14.0209 42.2197 14.6122 42.6983C15.2037 43.1767 15.635 43.8529 15.9064 44.7267C16.1846 45.6004 16.3238 46.6372 16.3238 47.8369C16.3238 48.9743 16.1568 49.9902 15.8229 50.8848C15.4889 51.7724 15.0054 52.4728 14.3723 52.986C13.7391 53.4923 12.9703 53.7454 12.0659 53.7454C10.9875 53.7454 10.1108 53.3605 9.43597 52.5907V57.6567L6.13818 58V42.3446H9.06028L9.20639 43.5824C9.65862 43.0068 10.1526 42.5977 10.6883 42.355C11.224 42.1053 11.7528 41.9805 12.2746 41.9805ZM11.2519 44.4042C10.8692 44.4042 10.5318 44.5187 10.2396 44.7475C9.94735 44.9763 9.67948 45.2883 9.43597 45.6837V50.3439C9.66557 50.6837 9.9056 50.9333 10.1561 51.0928C10.4135 51.2523 10.7161 51.3321 11.064 51.3321C11.6484 51.3321 12.1041 51.0686 12.4312 50.5415C12.7582 50.0075 12.9216 49.1199 12.9216 47.8786C12.9216 46.9631 12.8555 46.2558 12.7233 45.7565C12.5912 45.2503 12.3999 44.9 12.1493 44.7059C11.8989 44.5047 11.5997 44.4042 11.2519 44.4042Z" fill="#42446E"/>
<path d="M27.9881 50.2087C27.9881 50.6247 28.0437 50.9264 28.1551 51.1136C28.2733 51.3009 28.4612 51.4431 28.7186 51.5401L28.0403 53.7038C27.3862 53.6414 26.8332 53.4992 26.3809 53.2773C25.9356 53.0484 25.5843 52.7051 25.3269 52.2475C24.9025 52.7537 24.3598 53.1317 23.6989 53.3813C23.0379 53.624 22.3631 53.7454 21.6743 53.7454C20.5332 53.7454 19.6218 53.4229 18.94 52.778C18.2651 52.1261 17.9277 51.2905 17.9277 50.2711C17.9277 49.0713 18.3974 48.1455 19.3366 47.4936C20.2827 46.8418 21.6116 46.5159 23.3231 46.5159H24.8155V46.0998C24.8155 44.9694 24.085 44.4042 22.6239 44.4042C22.2692 44.4042 21.8134 44.4562 21.2568 44.5603C20.7002 44.6573 20.1436 44.7994 19.587 44.9867L18.8252 42.8023C19.5419 42.5318 20.2863 42.3272 21.0585 42.1885C21.8377 42.0499 22.5335 41.9805 23.1457 41.9805C24.7946 41.9805 26.0121 42.3168 26.7983 42.9894C27.5915 43.6552 27.9881 44.6191 27.9881 45.8813V50.2087ZM22.8117 51.3945C23.1666 51.3945 23.5389 51.2905 23.9285 51.0824C24.3181 50.8675 24.6137 50.5658 24.8155 50.1775V48.3883H24.0015C23.0831 48.3883 22.4083 48.5304 21.9769 48.8147C21.5456 49.0921 21.3299 49.5013 21.3299 50.0422C21.3299 50.4652 21.4585 50.7981 21.716 51.0408C21.9804 51.2766 22.3457 51.3945 22.8117 51.3945Z" fill="#42446E"/>
<path d="M41.6355 42.3445L37.9412 53.3916H34.059L30.3228 42.3445H33.8815L36.0418 50.8743L38.2959 42.3445H41.6355Z" fill="#42446E"/>
<path d="M53.0286 50.2087C53.0286 50.6247 53.0843 50.9264 53.1956 51.1136C53.3139 51.3009 53.5017 51.4431 53.7591 51.5401L53.0808 53.7038C52.4267 53.6414 51.8737 53.4992 51.4215 53.2773C50.9762 53.0484 50.6249 52.7051 50.3674 52.2475C49.9431 52.7537 49.4003 53.1317 48.7394 53.3813C48.0784 53.624 47.4036 53.7454 46.7148 53.7454C45.5738 53.7454 44.6623 53.4229 43.9805 52.778C43.3057 52.1261 42.9683 51.2905 42.9683 50.2711C42.9683 49.0713 43.4379 48.1455 44.3771 47.4936C45.3233 46.8418 46.6522 46.5159 48.3637 46.5159H49.856V46.0998C49.856 44.9694 49.1255 44.4042 47.6645 44.4042C47.3097 44.4042 46.8539 44.4562 46.2973 44.5603C45.7407 44.6573 45.1842 44.7994 44.6276 44.9867L43.8658 42.8023C44.5824 42.5318 45.3268 42.3272 46.099 42.1885C46.8783 42.0499 47.574 41.9805 48.1862 41.9805C49.8351 41.9805 51.0527 42.3168 51.8388 42.9894C52.632 43.6552 53.0286 44.6191 53.0286 45.8813V50.2087ZM47.8523 51.3945C48.2071 51.3945 48.5794 51.2905 48.969 51.0824C49.3586 50.8675 49.6543 50.5658 49.856 50.1775V48.3883H49.0421C48.1236 48.3883 47.4488 48.5304 47.0175 48.8147C46.5861 49.0921 46.3704 49.5013 46.3704 50.0422C46.3704 50.4652 46.4992 50.7981 46.7565 51.0408C47.0209 51.2766 47.3862 51.3945 47.8523 51.3945Z" fill="#42446E"/>
<path d="M56.2188 53.3917V42.3446H59.0992L59.3288 43.624C59.8227 43.0692 60.3444 42.6567 60.8942 42.3862C61.4437 42.1157 62.0699 41.9805 62.7726 41.9805C63.7188 41.9805 64.4633 42.2682 65.006 42.8439C65.5486 43.4195 65.8199 44.2308 65.8199 45.2779V53.3917H62.5222V46.2246C62.5222 45.545 62.4457 45.0734 62.2925 44.8098C62.1464 44.5395 61.8682 44.4042 61.4576 44.4042C61.1098 44.4042 60.7759 44.5151 60.4558 44.7371C60.1427 44.959 59.8296 45.2675 59.5166 45.6629V53.3917H56.2188Z" fill="#42446E"/>
<path d="M76.9314 41.9805C77.7174 41.9805 78.2985 42.2371 78.6742 42.7503C79.0568 43.2565 79.2481 44.0783 79.2481 45.2155V53.3917H76.42V45.59C76.42 45.2017 76.3817 44.9278 76.3052 44.7683C76.2356 44.6087 76.0894 44.5291 75.8668 44.5291C75.693 44.5291 75.512 44.5811 75.3241 44.6851C75.1433 44.7822 74.9415 44.9694 74.7189 45.2467V53.3917H72.4021V45.59C72.4021 45.2017 72.3638 44.9278 72.2873 44.7683C72.2177 44.6087 72.0716 44.5291 71.8489 44.5291C71.6751 44.5291 71.4941 44.5811 71.3062 44.6851C71.1254 44.7822 70.9236 44.9694 70.701 45.2467V53.3917H67.8311V42.3446H70.2522L70.4714 43.4159C70.8193 42.9444 71.1707 42.5873 71.5254 42.3446C71.8803 42.1019 72.3012 41.9805 72.7882 41.9805C73.2056 41.9805 73.5604 42.0879 73.8527 42.303C74.1519 42.511 74.3641 42.8404 74.4893 43.2911C74.8233 42.9028 75.192 42.5873 75.5955 42.3446C75.9991 42.1019 76.4443 41.9805 76.9314 41.9805Z" fill="#42446E"/>
<path d="M91.1004 40.5762L91.8728 42.9894C91.4832 43.142 91.0274 43.253 90.5057 43.3223C89.9838 43.3917 89.3751 43.4263 88.6794 43.4263C89.3751 43.7246 89.9038 44.0955 90.2656 44.5394C90.6344 44.9762 90.8187 45.5518 90.8187 46.2662C90.8187 46.9804 90.6274 47.6185 90.2448 48.1802C89.862 48.735 89.3195 49.1719 88.6168 49.4909C87.9141 49.8099 87.0826 49.9694 86.1225 49.9694C85.6633 49.9694 85.2354 49.9278 84.8389 49.8446C84.7205 49.907 84.6302 49.997 84.5676 50.115C84.5049 50.2329 84.4736 50.3543 84.4736 50.4791C84.4736 50.6524 84.5431 50.8085 84.6824 50.9471C84.8285 51.0859 85.1659 51.1552 85.6946 51.1552H87.5105C88.3732 51.1552 89.1176 51.2939 89.7438 51.5713C90.3769 51.8486 90.8674 52.2267 91.2153 52.7051C91.5631 53.1836 91.7371 53.7316 91.7371 54.3488C91.7371 55.4791 91.2397 56.3702 90.2448 57.0221C89.2498 57.6739 87.7714 57.9999 85.8094 57.9999C84.3901 57.9999 83.2908 57.8543 82.5117 57.563C81.7393 57.2787 81.2002 56.8696 80.8941 56.3355C80.5949 55.8085 80.4453 55.1809 80.4453 54.4527H83.3673C83.3673 54.7717 83.43 55.0318 83.5552 55.2329C83.6874 55.441 83.9344 55.5936 84.2962 55.6906C84.6649 55.7877 85.1972 55.8363 85.8929 55.8363C86.5956 55.8363 87.1313 55.7807 87.5 55.6698C87.8688 55.5588 88.1192 55.4063 88.2515 55.2121C88.3906 55.0248 88.4602 54.8134 88.4602 54.5775C88.4602 54.2516 88.3314 53.9881 88.0741 53.787C87.8166 53.5859 87.4097 53.4853 86.853 53.4853H85.0893C83.8926 53.4853 83.0229 53.2669 82.4803 52.8299C81.9376 52.3862 81.6663 51.8694 81.6663 51.28C81.6663 50.8709 81.7741 50.4826 81.9898 50.115C82.2124 49.7475 82.5221 49.4388 82.9187 49.1892C82.209 48.8147 81.701 48.3743 81.3949 47.8681C81.0888 47.355 80.9358 46.7412 80.9358 46.0269C80.9358 45.1947 81.148 44.4804 81.5724 43.8841C81.9968 43.2807 82.5811 42.8161 83.3256 42.4902C84.077 42.1643 84.9329 42.0012 85.8929 42.0012C86.7208 42.0151 87.441 41.9596 88.0532 41.8348C88.6654 41.703 89.2151 41.5263 89.7021 41.3043C90.189 41.0754 90.6552 40.8327 91.1004 40.5762ZM85.9764 44.1337C85.4546 44.1337 85.0406 44.3002 84.7345 44.6331C84.4283 44.959 84.2753 45.4097 84.2753 45.9853C84.2753 46.5955 84.4319 47.0637 84.745 47.3896C85.058 47.7155 85.4686 47.8785 85.9764 47.8785C87.1034 47.8785 87.667 47.2335 87.667 45.9437C87.667 44.7371 87.1034 44.1337 85.9764 44.1337Z" fill="#42446E"/>
</svg>
