<svg width="10" height="10" viewBox="0 0 10 10" fill="none" xmlns="http://www.w3.org/2000/svg">
<path d="M0.333252 0.5V9.5H4.33325V7.75H5.66659V9.5H9.66659V0.5H0.333252ZM1.66659 1.5H2.99992V2.5H1.66659V1.5ZM4.33325 1.5H5.66659V2.5H4.33325V1.5ZM6.99992 1.5H8.33325V2.5H6.99992V1.5ZM1.66659 3.5H2.99992V4.5H1.66659V3.5ZM4.33325 3.5H5.66659V4.5H4.33325V3.5ZM6.99992 3.5H8.33325V4.5H6.99992V3.5ZM1.66659 5.5H2.99992V6.5H1.66659V5.5ZM4.33325 5.5H5.66659V6.5H4.33325V5.5ZM6.99992 5.5H8.33325V6.5H6.99992V5.5ZM1.66659 7.5H2.99992V8.5H1.66659V7.5ZM6.99992 7.5H8.33325V8.5H6.99992V7.5Z" fill="#A7A7A7"/>
</svg>
